<svg width="24" height="24" viewBox="0 0 24 24" fill="none" xmlns="http://www.w3.org/2000/svg">
<path fill-rule="evenodd" clip-rule="evenodd" d="M20.9995 16.9201V19.9201C21.0017 20.4832 20.7665 21.0213 20.3515 21.402C19.9366 21.7827 19.3803 21.9708 18.8195 21.9201C15.7423 21.5857 12.7865 20.5342 10.1895 18.8501C7.77328 17.3148 5.72479 15.2663 4.18945 12.8501C2.49943 10.2413 1.44769 7.27109 1.11945 4.1801C1.06893 3.62097 1.25572 3.06635 1.63422 2.65172C2.01271 2.23709 2.54805 2.00063 3.10945 2.0001H6.10945C7.11332 1.99022 7.96895 2.72607 8.10945 3.7201C8.23607 4.68016 8.4709 5.62283 8.80945 6.5301C9.08419 7.26097 8.90847 8.0849 8.35945 8.6401L7.08945 9.9101C8.51301 12.4136 10.5859 14.4865 13.0895 15.9101L14.3595 14.6401C14.9146 14.0911 15.7386 13.9154 16.4695 14.1901C17.3767 14.5286 18.3194 14.7635 19.2795 14.8901C20.285 15.032 21.0246 15.9049 20.9995 16.9201Z" stroke="#141B23" stroke-width="2" stroke-linecap="round" stroke-linejoin="round"/>
</svg>
