<svg width="133" height="71" viewBox="0 0 133 71" fill="none" xmlns="http://www.w3.org/2000/svg">
<path d="M11.2408 20.3987C10.1792 20.1089 8.19292 19.5612 6.34375 18.2311C3.75667 16.4082 2.32458 13.7479 2.18458 10.4442C2.0475 7.68539 2.87875 5.27139 4.54125 3.39931C6.94458 0.738982 10.4096 0 12.0721 0C16.7883 0 19.4221 1.82281 21.7788 3.44857L22.8404 4.18755L19.4658 10.0501L18.2992 9.26188C16.2196 7.83318 14.8808 6.89714 12.0604 6.89714C11.6463 6.89714 10.0188 7.242 9.19625 8.17804C8.91917 8.46784 8.59542 9.01555 8.64208 10.1487C8.68875 11.9222 9.84375 12.9104 12.8013 13.6987C13.1717 13.7972 13.4488 13.8957 13.7258 13.9884C16.8204 15.1216 19.2238 16.6488 20.8892 18.5701C22.5195 20.4466 23.4205 22.8406 23.4296 25.3195C23.3825 27.8301 22.4692 30.2486 20.8425 32.1702C19.9475 33.2758 18.8147 34.1684 17.5272 34.7822C16.2397 35.396 14.8301 35.7156 13.4021 35.7173C11.4743 35.7431 9.55483 35.4603 7.7175 34.8798C4.72407 33.8537 2.06009 32.0529 0 29.6635L4.71333 24.9311C8.13458 28.8231 11.97 28.8231 13.4021 28.8231C16.0825 28.8231 16.9604 26.2149 16.9604 25.3253C16.9604 23.4532 14.9742 21.7289 11.5996 20.4973L11.4625 20.448L11.2408 20.3987Z" fill="url(#paint0_linear)"/>
<path d="M55.8657 35.0334V13.8957L46.5791 22.9113L37.2895 13.8957V35.0334H30.8203V0.492676H33.0399L46.5791 13.6001L60.0716 0.492676H62.3349V35.0334H55.8657Z" fill="url(#paint1_linear)"/>
<path d="M70.6499 34.9842V0.498535H77.122V34.9842H70.6499Z" fill="url(#paint2_linear)"/>
<path d="M91.9072 28.1335H103.968V34.9842H85.438V0.498535H91.9072V28.1335Z" fill="url(#paint3_linear)"/>
<path d="M132.938 7.38982H111.355V0.492676H132.938V7.38982ZM111.355 13.7972H129.237V20.6943H111.361L111.355 13.7972ZM111.355 28.1334H132.795V35.0334H111.361L111.355 28.1334Z" fill="url(#paint4_linear)"/>
<path d="M4.15625 45.5646H6.57417C8.53417 45.5646 9.87583 46.8194 9.87583 48.7755C9.87583 50.7316 8.56917 52.1082 6.57417 52.1082H4.15625V45.5646ZM4.87667 51.5286H6.48083C8.25417 51.5286 9.10583 50.3694 9.10583 48.8103C9.10583 47.4367 8.32708 46.1645 6.48083 46.1645H4.87667V51.5286Z" fill="white"/>
<path d="M20.2148 48.9639H16.6536V51.5286H20.5736L20.4744 52.1226H15.9419V45.5646H20.3898V46.1587H16.6536V48.3727H20.2148V48.9639Z" fill="white"/>
<path d="M26.4541 52.1082V45.5646H27.4545C28.5162 47.1179 30.9282 50.5925 31.3482 51.3025C31.287 50.4071 31.2928 49.4131 31.2928 48.3437V45.5646H31.9986V52.1082H31.074C30.0765 50.636 27.6004 46.9672 27.1249 46.2398C27.1745 47.0483 27.1716 48.0713 27.1716 49.2566V52.1082H26.4541Z" fill="white"/>
<path d="M39.9989 46.1587H37.6655V45.5646H43.0643V46.1587H40.7309V52.1082H39.9989V46.1587Z" fill="white"/>
<path d="M48.6937 49.9839L47.8595 52.1081H47.1333L49.6912 45.5616H50.5662L53.2408 52.1081H52.462L51.6045 49.981L48.6937 49.9839ZM51.3916 49.3898C50.6566 47.5467 50.2687 46.6223 50.12 46.1557C49.9479 46.6774 49.5104 47.8134 48.9183 49.3898H51.3916Z" fill="white"/>
<path d="M58.9692 45.5646H59.6897V51.5286H63.4492L63.3355 52.1226H58.9692V45.5646Z" fill="white"/>
<path d="M81.7043 50.3143C81.3806 51.3837 80.5377 52.1893 78.9831 52.1893C76.9152 52.1893 75.8477 50.6969 75.8477 48.8509C75.8477 47.0802 76.9064 45.4719 79.0035 45.4719C80.5901 45.4719 81.4914 46.3007 81.7131 47.3932H80.9897C80.6981 46.605 80.1439 46.0544 78.9685 46.0544C77.3031 46.0544 76.6118 47.4628 76.6118 48.8364C76.6118 50.21 77.2827 51.6039 79.0093 51.6039C79.4352 51.6332 79.8586 51.5228 80.2154 51.2898C80.5721 51.0571 80.8419 50.7143 80.9839 50.3143H81.7043Z" fill="white"/>
<path d="M87.7217 45.5646H88.4421V51.5286H92.1871L92.0733 52.1226H87.7217V45.5646Z" fill="white"/>
<path d="M98.5188 45.5646V52.1082H97.7983V45.5646H98.5188Z" fill="white"/>
<path d="M105.082 52.1082V45.5646H106.085C107.147 47.1179 109.556 50.5925 109.979 51.3025C109.914 50.4071 109.923 49.4131 109.923 48.3437V45.5646H110.626V52.1082H109.693C108.695 50.636 106.219 46.9672 105.744 46.2398C105.793 47.0483 105.787 48.0713 105.787 49.2566V52.1082H105.082Z" fill="white"/>
<path d="M117.924 45.5646V52.1082H117.203V45.5646H117.924Z" fill="white"/>
<path d="M129.853 50.3143C129.529 51.3837 128.672 52.1893 127.129 52.1893C125.064 52.1893 123.996 50.6969 123.996 48.8509C123.996 47.0802 125.052 45.4719 127.149 45.4719C128.739 45.4719 129.637 46.3007 129.859 47.3932H129.138C128.847 46.605 128.289 46.0544 127.117 46.0544C125.452 46.0544 124.76 47.4628 124.76 48.8364C124.76 50.21 125.431 51.6039 127.158 51.6039C127.583 51.6335 128.007 51.5234 128.363 51.2904C128.719 51.0574 128.989 50.7143 129.129 50.3143H129.853Z" fill="white"/>
<path d="M51.1439 65.9819H48.383V68.2252H51.5901V68.9076H47.543V62.5779H51.5464V63.265H48.383V65.2994H51.1439V65.9819ZM54.5126 66.0862C53.7922 65.8804 53.2672 65.6283 52.9376 65.3298C52.611 65.0284 52.4476 64.6575 52.4476 64.217C52.4476 63.7185 52.6474 63.307 53.047 62.9825C53.4495 62.6547 53.9716 62.491 54.6133 62.491C55.0511 62.491 55.4404 62.575 55.7817 62.7431C56.1258 62.9112 56.3913 63.1433 56.5779 63.4389C56.7675 63.7345 56.8623 64.0576 56.8623 64.4083H56.0179C56.0179 64.0257 55.8954 63.7258 55.6504 63.5084C55.4054 63.2882 55.0598 63.1781 54.6133 63.1781C54.1991 63.1781 53.8753 63.2694 53.642 63.4519C53.4116 63.6316 53.2964 63.8823 53.2964 64.2039C53.2964 64.4619 53.4058 64.6807 53.6245 64.8603C53.8462 65.0371 54.221 65.1994 54.7489 65.3472C55.28 65.495 55.6942 65.6587 55.9917 65.8384C56.2921 66.0152 56.5138 66.2224 56.6567 66.46C56.8025 66.6976 56.8754 66.9773 56.8754 67.299C56.8754 67.8122 56.6742 68.2237 56.2717 68.5338C55.8692 68.841 55.3311 68.9946 54.657 68.9946C54.2195 68.9946 53.8112 68.912 53.432 68.7468C53.0528 68.5787 52.7597 68.3498 52.5526 68.06C52.3485 67.7702 52.2464 67.441 52.2464 67.0729H53.0908C53.0908 67.4555 53.2322 67.7586 53.5151 67.9817C53.801 68.202 54.1816 68.3121 54.657 68.3121C55.1006 68.3121 55.4404 68.2223 55.6767 68.0426C55.9129 67.8629 56.0311 67.618 56.0311 67.3077C56.0311 66.9976 55.9217 66.7585 55.7029 66.5904C55.4842 66.4194 55.0875 66.2514 54.5126 66.0862ZM62.3576 63.265H60.3101V68.9076H59.4742V63.265H57.4311V62.5779H62.3576V63.265Z" fill="white"/>
<path d="M72.4468 68.7252V68.6904C72.4468 67.9138 73.0301 67.0299 74.1968 66.1258C75.1593 65.3752 75.4101 65.1433 75.4101 64.4507C75.4256 64.3032 75.4081 64.154 75.3591 64.014C75.3098 63.8738 75.2301 63.7462 75.1257 63.6402C75.0213 63.5341 74.8947 63.4524 74.7547 63.4005C74.6147 63.3489 74.4651 63.3284 74.3163 63.3408C73.5697 63.3408 73.1993 63.7147 73.0622 64.5H72.4789C72.5868 63.5234 73.1964 62.8163 74.3163 62.8163C75.5326 62.8163 76.0313 63.6335 76.0313 64.4276C76.0313 65.3172 75.658 65.636 74.5963 66.4967C73.7768 67.1574 73.3014 67.6733 73.138 68.1804H76.253L76.1626 68.7252H72.4468Z" fill="white"/>
<path d="M81.3519 65.7809C81.3519 67.1632 80.9815 68.8325 79.4152 68.8325C77.849 68.8325 77.4873 67.2849 77.4873 65.8244C77.4873 64.3638 77.9219 62.8163 79.4415 62.8163C80.961 62.8163 81.3519 64.3551 81.3519 65.7809ZM78.1231 65.8302C78.1231 66.9459 78.3361 68.3021 79.4181 68.3021C80.5002 68.3021 80.7248 67.0096 80.7248 65.7838C80.7248 64.6681 80.5148 63.3466 79.4502 63.3466C78.3856 63.3466 78.1231 64.5464 78.1231 65.8302Z" fill="white"/>
<path d="M83.8245 68.7251V63.6421C83.4518 63.9183 83.0303 64.1229 82.582 64.2449V63.7348C83.0933 63.5444 83.5623 63.2561 83.9616 62.8857H84.4283V68.7251H83.8245Z" fill="white"/>
<path d="M86.1987 68.7252V68.6904C86.1987 67.9138 86.7821 67.0299 87.9487 66.1258C88.9083 65.3752 89.1621 65.1433 89.1621 64.4507C89.1772 64.3029 89.1594 64.1537 89.1098 64.0137C89.0603 63.8738 88.9804 63.746 88.8756 63.6402C88.7709 63.5341 88.6441 63.4524 88.5041 63.4008C88.3641 63.3489 88.2144 63.3286 88.0654 63.3408C87.3216 63.3408 86.9483 63.7147 86.8141 64.5H86.2308C86.3387 63.5234 86.9483 62.8163 88.0654 62.8163C89.2846 62.8163 89.7833 63.6335 89.7833 64.4276C89.7833 65.3172 89.41 65.636 88.3483 66.4967C87.5258 67.1574 87.0533 67.6733 86.89 68.1804H90.0108L89.9175 68.7252H86.1987Z" fill="white"/>
<path d="M66.85 67.9079L65.8321 66.4299C65.7977 66.3789 65.7793 66.3189 65.7793 66.2575C65.7793 66.1961 65.7977 66.1361 65.8321 66.0851L66.85 64.6042C66.8786 64.5637 66.9165 64.5303 66.9605 64.5074C67.0049 64.4845 67.0539 64.4727 67.1038 64.4727C67.1536 64.4727 67.2026 64.4845 67.247 64.5074C67.291 64.5303 67.3289 64.5637 67.3575 64.6042L68.3754 66.0851C68.4124 66.1349 68.4326 66.1955 68.4326 66.2575C68.4326 66.3195 68.4124 66.3801 68.3754 66.4299L67.3575 67.9079C67.3289 67.9485 67.291 67.9818 67.247 68.0047C67.2026 68.0276 67.1536 68.0395 67.1038 68.0395C67.0539 68.0395 67.0049 68.0276 66.9605 68.0047C66.9165 67.9818 66.8786 67.9485 66.85 67.9079Z" fill="url(#paint5_linear)"/>
<defs>
<linearGradient id="paint0_linear" x1="0" y1="17.8601" x2="132.939" y2="17.8601" gradientUnits="userSpaceOnUse">
<stop stop-color="#EFC75F"/>
<stop offset="0.23" stop-color="#A8702B"/>
<stop offset="0.33" stop-color="#E2B756"/>
<stop offset="0.46" stop-color="#F9F2B7"/>
<stop offset="0.58" stop-color="#E2B756"/>
<stop offset="0.69" stop-color="#905E21"/>
<stop offset="1" stop-color="#E2B756"/>
</linearGradient>
<linearGradient id="paint1_linear" x1="-0.000125098" y1="17.8601" x2="132.939" y2="17.8601" gradientUnits="userSpaceOnUse">
<stop stop-color="#EFC75F"/>
<stop offset="0.23" stop-color="#A8702B"/>
<stop offset="0.33" stop-color="#E2B756"/>
<stop offset="0.46" stop-color="#F9F2B7"/>
<stop offset="0.58" stop-color="#E2B756"/>
<stop offset="0.69" stop-color="#905E21"/>
<stop offset="1" stop-color="#E2B756"/>
</linearGradient>
<linearGradient id="paint2_linear" x1="-0.000666409" y1="17.8602" x2="132.938" y2="17.8602" gradientUnits="userSpaceOnUse">
<stop stop-color="#EFC75F"/>
<stop offset="0.23" stop-color="#A8702B"/>
<stop offset="0.33" stop-color="#E2B756"/>
<stop offset="0.46" stop-color="#F9F2B7"/>
<stop offset="0.58" stop-color="#E2B756"/>
<stop offset="0.69" stop-color="#905E21"/>
<stop offset="1" stop-color="#E2B756"/>
</linearGradient>
<linearGradient id="paint3_linear" x1="-3.24922e-05" y1="17.8602" x2="132.939" y2="17.8602" gradientUnits="userSpaceOnUse">
<stop stop-color="#EFC75F"/>
<stop offset="0.23" stop-color="#A8702B"/>
<stop offset="0.33" stop-color="#E2B756"/>
<stop offset="0.46" stop-color="#F9F2B7"/>
<stop offset="0.58" stop-color="#E2B756"/>
<stop offset="0.69" stop-color="#905E21"/>
<stop offset="1" stop-color="#E2B756"/>
</linearGradient>
<linearGradient id="paint4_linear" x1="-0.000350665" y1="17.8601" x2="132.938" y2="17.8601" gradientUnits="userSpaceOnUse">
<stop stop-color="#EFC75F"/>
<stop offset="0.23" stop-color="#A8702B"/>
<stop offset="0.33" stop-color="#E2B756"/>
<stop offset="0.46" stop-color="#F9F2B7"/>
<stop offset="0.58" stop-color="#E2B756"/>
<stop offset="0.69" stop-color="#905E21"/>
<stop offset="1" stop-color="#E2B756"/>
</linearGradient>
<linearGradient id="paint5_linear" x1="67.1038" y1="68.0412" x2="67.1038" y2="64.4738" gradientUnits="userSpaceOnUse">
<stop stop-color="#835713"/>
<stop offset="0.12" stop-color="#885C17"/>
<stop offset="0.28" stop-color="#986B22"/>
<stop offset="0.45" stop-color="#B28234"/>
<stop offset="0.49" stop-color="#B98939"/>
<stop offset="0.52" stop-color="#BB8B3B"/>
<stop offset="0.54" stop-color="#C09143"/>
<stop offset="0.55" stop-color="#CA9D50"/>
<stop offset="0.56" stop-color="#D8AD62"/>
<stop offset="0.57" stop-color="#FED895"/>
<stop offset="0.58" stop-color="#FDD794"/>
<stop offset="0.78" stop-color="#D0A958"/>
<stop offset="0.92" stop-color="#B58C32"/>
<stop offset="1" stop-color="#AA8124"/>
</linearGradient>
</defs>
</svg>
