<svg width="75" height="75" viewBox="0 0 75 75" fill="none" xmlns="http://www.w3.org/2000/svg">
<path d="M0 18C0 8.05888 8.05887 0 18 0H75V57C75 66.9411 66.9411 75 57 75H0V18Z" fill="#FFC52F"/>
<g clip-path="url(#clip0)">
<path d="M44.1466 24.6489C41.7172 24.6125 39.3994 25.3805 37.5007 26.8355C35.6021 25.3803 33.2852 24.61 30.8549 24.6489C28.0604 24.6922 25.4303 25.8172 23.4492 27.8165C21.4685 29.8155 20.3674 32.4558 20.3489 35.2508C20.3271 38.5421 21.8196 41.6387 24.3747 43.6743V46.4258C24.3747 51.1863 26.4928 55.6392 30.1859 58.6429L30.5656 58.9517H35.4086V50.2434C35.4086 49.0899 36.3471 48.1514 37.5007 48.1514C38.6542 48.1514 39.5927 49.0899 39.5927 50.2434V58.9517H44.4358L44.8154 58.6429C48.5085 55.6392 50.6266 51.1862 50.6266 46.4258V43.6743C53.1817 41.6387 54.6742 38.5421 54.6524 35.2508C54.634 32.4559 53.5329 29.8156 51.5521 27.8165C49.5712 25.8171 46.9411 24.6921 44.1466 24.6489ZM48.4678 41.8484L47.8725 42.259V46.4258C47.8725 50.1938 46.2644 53.7281 43.4434 56.1975H42.347V50.2435C42.347 47.5713 40.173 45.3972 37.5007 45.3972C34.8285 45.3972 32.6545 47.5713 32.6545 50.2435V56.1975H31.5581C28.7371 53.7282 27.129 50.1938 27.129 46.4258V42.259L26.5337 41.8484C24.3682 40.3549 23.0858 37.8954 23.1031 35.269C23.1314 30.9979 26.628 27.469 30.8977 27.4027C33.016 27.3685 35.0218 28.1646 36.5413 29.6403L37.5008 30.572L38.4603 29.6403C39.9798 28.1646 41.9829 27.373 44.104 27.4027C48.3736 27.469 51.8703 30.9978 51.8985 35.269C51.9157 37.8954 50.6334 40.3549 48.4678 41.8484Z" fill="#141B23"/>
<path d="M36.123 16.0483H38.8773V21.403H36.123V16.0483Z" fill="#141B23"/>
<path d="M47.1289 21.9878L48.9549 16.9544L51.5438 17.8936L49.7179 22.927L47.1289 21.9878Z" fill="#141B23"/>
<path d="M55.0195 27.8662L59.6138 25.1086L61.0322 27.4716L56.4379 30.2293L55.0195 27.8662Z" fill="#141B23"/>
<path d="M23.4668 17.8809L26.0558 16.9417L27.8817 21.9751L25.2928 22.9143L23.4668 17.8809Z" fill="#141B23"/>
<path d="M13.9961 27.4888L15.4145 25.1285L20.0034 27.8861L18.585 30.2464L13.9961 27.4888Z" fill="#141B23"/>
</g>
<defs>
<clipPath id="clip0">
<rect width="47" height="47" fill="white" transform="translate(14 14)"/>
</clipPath>
</defs>
</svg>
