<svg width="36" height="36" viewBox="0 0 36 36" fill="none" xmlns="http://www.w3.org/2000/svg">
<path fill-rule="evenodd" clip-rule="evenodd" d="M18 36C8.05887 36 0 27.9411 0 18C0 8.05887 8.05887 0 18 0C27.9411 0 36 8.05887 36 18C36 27.9411 27.9411 36 18 36ZM18.5933 28.0144C24.4946 28.012 29.2942 23.2112 29.2966 17.3111C29.2977 14.4513 28.1854 11.7621 26.1647 9.73906C24.1439 7.7159 21.4565 6.60124 18.5932 6.6C12.6936 6.6 7.89209 11.4013 7.88974 17.3027C7.88893 19.1891 8.3818 21.0304 9.31846 22.6536L7.8 28.2L13.474 26.7116C15.0374 27.5643 16.7975 28.0138 18.5889 28.0144H18.5933Z" fill="white"/>
<path fill-rule="evenodd" clip-rule="evenodd" d="M13.7368 24.7739L10.3698 25.6572L11.2685 22.3743L11.0569 22.0377C10.1664 20.6214 9.69609 18.9843 9.69678 17.3033C9.69872 12.3983 13.6896 8.40784 18.5967 8.40784C20.9729 8.40866 23.2065 9.33518 24.8861 11.0168C26.5658 12.6983 27.4902 14.9334 27.4893 17.3105C27.4873 22.2159 23.4965 26.2068 18.5932 26.2068H18.5896C16.9932 26.2062 15.4275 25.7773 14.0616 24.9667L13.7368 24.7739ZM23.9855 19.8564C23.9186 19.7448 23.7404 19.6779 23.4729 19.544C23.2055 19.4101 21.8906 18.7632 21.6454 18.6739C21.4003 18.5846 21.222 18.5401 21.0437 18.8077C20.8655 19.0754 20.3529 19.6779 20.1969 19.8564C20.0409 20.0348 19.8849 20.0572 19.6175 19.9233C19.3501 19.7894 18.4884 19.507 17.4668 18.5959C16.6718 17.8867 16.135 17.011 15.979 16.7432C15.823 16.4755 15.9624 16.3308 16.0963 16.1974C16.2166 16.0775 16.3637 15.885 16.4975 15.7288C16.6312 15.5727 16.6757 15.4611 16.7649 15.2827C16.854 15.1042 16.8095 14.948 16.7426 14.8142C16.6757 14.6803 16.1409 13.3639 15.918 12.8284C15.7009 12.3069 15.4805 12.3775 15.3163 12.3693C15.1605 12.3615 14.982 12.3598 14.8037 12.3598C14.6254 12.3598 14.3357 12.4268 14.0906 12.6945C13.8454 12.9623 13.1545 13.6093 13.1545 14.9256C13.1545 16.242 14.1128 17.5137 14.2466 17.6922C14.3803 17.8707 16.1324 20.572 18.8152 21.7304C19.4533 22.006 19.9514 22.1705 20.3399 22.2938C20.9805 22.4974 21.5636 22.4687 22.0243 22.3998C22.5382 22.323 23.6066 21.7528 23.8296 21.1282C24.0523 20.5033 24.0523 19.9679 23.9855 19.8564Z" fill="white"/>
</svg>
